<?xml version="1.0" encoding="UTF-8"?>
<svg width="12px" height="13px" viewBox="0 0 12 13" version="1.1" xmlns="http://www.w3.org/2000/svg" xmlns:xlink="http://www.w3.org/1999/xlink">
    <!-- Generator: Sketch 57 (83077) - https://sketch.com -->
    <title>Shape</title>
    <desc>Created with Sketch.</desc>
    <g id="Maximize" stroke="none" stroke-width="1" fill="none" fill-rule="evenodd">
        <g id="max" transform="translate(-327.000000, -1322.000000)" fill="#002248">
            <g id="Group-8" transform="translate(225.000000, 1310.000000)">
                <path d="M103.181238,16.0518086 C103.341845,16.2288998 103.569793,16.3298991 103.808866,16.3298991 C104.047939,16.3298991 104.275886,16.2288998 104.436493,16.0518086 L106.827753,13.5789568 L106.781344,25.3349498 C106.781344,25.8548933 107.202842,26.2763908 107.722785,26.2763908 C108.242729,26.2763908 108.664226,25.8548933 108.664226,25.3349498 L108.710635,13.3718397 L111.221145,16.0204272 C111.590641,16.3998385 112.193061,16.4219456 112.589372,16.0706374 C112.776023,15.9043128 112.888853,15.6705774 112.902981,15.4209723 C112.91711,15.1713671 112.831377,14.9263924 112.664688,14.7400674 L108.898924,10.6604895 C108.688532,10.4363504 108.379768,10.3326431 108.076732,10.3843335 C107.772041,10.3219437 107.456344,10.4161815 107.235711,10.6353844 L103.156133,14.7149623 C102.986555,14.8965743 102.896225,15.138207 102.905082,15.3865236 C102.905302,15.6361251 103.004633,15.8754235 103.181238,16.0518086 Z" id="Shape" transform="translate(107.904487, 18.320914) rotate(44.000000) translate(-107.904487, -18.320914) "></path>
            </g>
        </g>
    </g>
</svg>