<?xml version="1.0" encoding="UTF-8"?>
<svg class="facebookSVG" viewBox="0 0 404 512" version="1.1" xmlns="http://www.w3.org/2000/svg" xmlns:xlink="http://www.w3.org/1999/xlink">
    <g id="Page-1" stroke="none" stroke-width="1" fill-rule="evenodd">
        <g id="pinterest" fill="" fill-rule="nonzero">
            <path d="M351.017,52.467 C315.774,18.634 267.001,0 213.684,0 C132.24,0 82.148,33.385 54.468,61.39 C20.354,95.903 0.793,141.73 0.793,187.122 C0.793,244.115 24.632,287.859 64.553,304.133 C67.233,305.231 69.93,305.784 72.574,305.784 C80.996,305.784 87.669,300.273 89.981,291.434 C91.329,286.363 94.451,273.852 95.809,268.421 C98.715,257.696 96.367,252.537 90.029,245.068 C78.483,231.406 73.106,215.251 73.106,194.226 C73.106,131.775 119.608,65.403 205.795,65.403 C274.181,65.403 316.661,104.271 316.661,166.837 C316.661,206.319 308.157,242.883 292.71,269.798 C281.976,288.5 263.101,310.793 234.125,310.793 C221.595,310.793 210.339,305.646 203.237,296.672 C196.528,288.189 194.316,277.231 197.015,265.81 C200.063,252.906 204.22,239.446 208.243,226.434 C215.58,202.668 222.516,180.221 222.516,162.312 C222.516,131.68 203.684,111.097 175.659,111.097 C140.043,111.097 112.14,147.271 112.14,193.451 C112.14,216.099 118.159,233.039 120.884,239.543 C116.397,258.553 89.731,371.573 84.673,392.885 C81.748,405.326 64.13,503.59 93.291,511.425 C126.055,520.228 155.342,424.526 158.323,413.712 C160.739,404.917 169.192,371.66 174.372,351.217 C190.189,366.452 215.656,376.752 240.436,376.752 C287.151,376.752 329.163,355.73 358.734,317.563 C387.413,280.543 403.208,228.945 403.208,172.281 C403.208,127.983 384.182,84.311 351.017,52.467 Z" id="Path"></path>
        </g>
    </g>
</svg>